#Comment line ignore any data following # character 
#Hierarchical Translation and Rotation (.htr) file 
[Header]	
#Header keywords are followed by a single value 
FileType HTR		#Single word string
DataType HTRS		#Translation followed by rotation and scale data
FileVersion 1		#integer
NumSegments 84		#integer
NumFrames 2		#integer
DataFrameRate 30		#integer, data frame rate in this file
EulerRotationOrder ZYX
CalibrationUnits mm
RotationUnits Degrees
GlobalAxisofGravity Y
BoneLengthAxis Y
ScaleFactor 1.00
[SegmentNames&Hierarchy]
#CHILD	PARENT
MASTER GLOBAL
root MASTER
chest root
L_mid_tent01 root
R_mid_tent01 root
spine01 root
Bip01_Neck chest
L_humerus chest
R_humerus chest
weapon_bone chest
Bip01_Head Bip01_Neck
eye_left_bone Bip01_Head
eye_right_bone Bip01_Head
L_forearm L_humerus
L_front_hand L_forearm
L_weapon_bone L_forearm
L_front_hand01_01 L_front_hand
L_front_hand02_01 L_front_hand
L_front_hand03_01 L_front_hand
L_front_hand01_02 L_front_hand01_01
L_front_hand02_02 L_front_hand02_01
L_front_hand03_02 L_front_hand03_01
R_forearm R_humerus
R_front_hand R_forearm
R_weapon_bone R_forearm
R_front_hand01_01 R_front_hand
R_front_hand02_01 R_front_hand
R_front_hand03_01 R_front_hand
R_front_hand01_02 R_front_hand01_01
R_front_hand02_02 R_front_hand02_01
R_front_hand03_02 R_front_hand03_01
null_rope01_connect L_mid_tent01
Rope1_Seg01 null_rope01_connect
Rope1_Seg02 Rope1_Seg01
Rope1_Seg03 Rope1_Seg02
Rope1_Seg04 Rope1_Seg03
Rope1_Seg05 Rope1_Seg04
Rope1_Seg06 Rope1_Seg05
Rope1_Seg07 Rope1_Seg06
Rope1_Seg09 Rope1_Seg07
L_mid_hand01 Rope1_Seg09
L_mid_hand02 Rope1_Seg09
L_mid_hand03 Rope1_Seg09
null_rope02_connect R_mid_tent01
Rope2_Seg01 null_rope02_connect
Rope2_Seg02 Rope2_Seg01
Rope2_Seg03 Rope2_Seg02
Rope2_Seg04 Rope2_Seg03
Rope2_Seg05 Rope2_Seg04
Rope2_Seg06 Rope2_Seg05
Rope2_Seg07 Rope2_Seg06
Rope2_Seg09 Rope2_Seg07
R_mid_hand01 Rope2_Seg09
R_mid_hand02 Rope2_Seg09
R_mid_hand03 Rope2_Seg09
spine02 spine01
spine03 spine02
pelvis spine03
null_rope03_connect pelvis
null_rope04_connect pelvis
Rope3_Seg01 null_rope03_connect
Rope3_Seg02 Rope3_Seg01
Rope3_Seg03 Rope3_Seg02
Rope3_Seg04 Rope3_Seg03
Rope3_Seg05 Rope3_Seg04
Rope3_Seg06 Rope3_Seg05
Rope3_Seg07 Rope3_Seg06
Rope3_Seg08 Rope3_Seg07
Rope3_Seg09 Rope3_Seg08
R_rear_hand01 Rope3_Seg09
R_rear_hand02 Rope3_Seg09
R_rear_hand03 Rope3_Seg09
Rope4_Seg01 null_rope04_connect
Rope4_Seg02 Rope4_Seg01
Rope4_Seg03 Rope4_Seg02
Rope4_Seg04 Rope4_Seg03
Rope4_Seg05 Rope4_Seg04
Rope4_Seg06 Rope4_Seg05
Rope4_Seg07 Rope4_Seg06
Rope4_Seg08 Rope4_Seg07
Rope4_Seg09 Rope4_Seg08
L_rear_hand01 Rope4_Seg09
L_rear_hand02 Rope4_Seg09
L_rear_hand03 Rope4_Seg09
[BasePosition]
#SegmentName Tx, Ty, Tz, Rx, Ry, Rz, BoneLength
MASTER 0.000000 0.000000 0.000000 -90.000000 0.000000 0.000000 10.000000 
root 0.000000 0.000000 0.000000 0.000000 0.000000 0.000000 10.000000 
chest 0.000000 0.000000 0.000000 0.000000 0.000000 0.000000 10.000000 
L_mid_tent01 0.000000 0.000000 0.000000 0.000000 0.000000 0.000000 10.000000 
R_mid_tent01 0.000000 0.000000 0.000000 0.000000 0.000000 0.000000 10.000000 
spine01 0.000000 0.000000 0.000000 0.000000 0.000000 0.000000 10.000000 
Bip01_Neck 0.000000 0.000000 0.000000 0.000000 0.000000 0.000000 10.000000 
L_humerus 0.000000 0.000000 0.000000 0.000000 0.000000 0.000000 10.000000 
R_humerus 0.000000 0.000000 0.000000 0.000000 0.000000 0.000000 10.000000 
weapon_bone 0.000000 0.000000 0.000000 0.000000 0.000000 0.000000 10.000000 
Bip01_Head 0.000000 0.000000 0.000000 0.000000 0.000000 0.000000 10.000000 
eye_left_bone 0.000000 0.000000 0.000000 0.000000 0.000000 0.000000 10.000000 
eye_right_bone 0.000000 0.000000 0.000000 0.000000 0.000000 0.000000 10.000000 
L_forearm 0.000000 0.000000 0.000000 0.000000 0.000000 0.000000 10.000000 
L_front_hand 0.000000 0.000000 0.000000 0.000000 0.000000 0.000000 10.000000 
L_weapon_bone 0.000000 0.000000 0.000000 0.000000 0.000000 0.000000 10.000000 
L_front_hand01_01 0.000000 0.000000 0.000000 0.000000 0.000000 0.000000 10.000000 
L_front_hand02_01 0.000000 0.000000 0.000000 0.000000 0.000000 0.000000 10.000000 
L_front_hand03_01 0.000000 0.000000 0.000000 0.000000 0.000000 0.000000 10.000000 
L_front_hand01_02 0.000000 0.000000 0.000000 0.000000 0.000000 0.000000 10.000000 
L_front_hand02_02 0.000000 0.000000 0.000000 0.000000 0.000000 0.000000 10.000000 
L_front_hand03_02 0.000000 0.000000 0.000000 0.000000 0.000000 0.000000 10.000000 
R_forearm 0.000000 0.000000 0.000000 0.000000 0.000000 0.000000 10.000000 
R_front_hand 0.000000 0.000000 0.000000 0.000000 0.000000 0.000000 10.000000 
R_weapon_bone 0.000000 0.000000 0.000000 0.000000 0.000000 0.000000 10.000000 
R_front_hand01_01 0.000000 0.000000 0.000000 0.000000 0.000000 0.000000 10.000000 
R_front_hand02_01 0.000000 0.000000 0.000000 0.000000 0.000000 0.000000 10.000000 
R_front_hand03_01 0.000000 0.000000 0.000000 0.000000 0.000000 0.000000 10.000000 
R_front_hand01_02 0.000000 0.000000 0.000000 0.000000 0.000000 0.000000 10.000000 
R_front_hand02_02 0.000000 0.000000 0.000000 0.000000 0.000000 0.000000 10.000000 
R_front_hand03_02 0.000000 0.000000 0.000000 0.000000 0.000000 0.000000 10.000000 
null_rope01_connect 0.000000 0.000000 0.000000 0.000000 0.000000 0.000000 10.000000 
Rope1_Seg01 0.000000 0.000000 0.000000 0.000000 0.000000 0.000000 10.000000 
Rope1_Seg02 0.000000 0.000000 0.000000 0.000000 0.000000 0.000000 10.000000 
Rope1_Seg03 0.000000 0.000000 0.000000 0.000000 0.000000 0.000000 10.000000 
Rope1_Seg04 0.000000 0.000000 0.000000 0.000000 0.000000 0.000000 10.000000 
Rope1_Seg05 0.000000 0.000000 0.000000 0.000000 0.000000 0.000000 10.000000 
Rope1_Seg06 0.000000 0.000000 0.000000 0.000000 0.000000 0.000000 10.000000 
Rope1_Seg07 0.000000 0.000000 0.000000 0.000000 0.000000 0.000000 10.000000 
Rope1_Seg09 0.000000 0.000000 0.000000 0.000000 0.000000 0.000000 10.000000 
L_mid_hand01 0.000000 0.000000 0.000000 0.000000 0.000000 0.000000 10.000000 
L_mid_hand02 0.000000 0.000000 0.000000 0.000000 0.000000 0.000000 10.000000 
L_mid_hand03 0.000000 0.000000 0.000000 0.000000 0.000000 0.000000 10.000000 
null_rope02_connect 0.000000 0.000000 0.000000 0.000000 0.000000 0.000000 10.000000 
Rope2_Seg01 0.000000 0.000000 0.000000 0.000000 0.000000 0.000000 10.000000 
Rope2_Seg02 0.000000 0.000000 0.000000 0.000000 0.000000 0.000000 10.000000 
Rope2_Seg03 0.000000 0.000000 0.000000 0.000000 0.000000 0.000000 10.000000 
Rope2_Seg04 0.000000 0.000000 0.000000 0.000000 0.000000 0.000000 10.000000 
Rope2_Seg05 0.000000 0.000000 0.000000 0.000000 0.000000 0.000000 10.000000 
Rope2_Seg06 0.000000 0.000000 0.000000 0.000000 0.000000 0.000000 10.000000 
Rope2_Seg07 0.000000 0.000000 0.000000 0.000000 0.000000 0.000000 10.000000 
Rope2_Seg09 0.000000 0.000000 0.000000 0.000000 0.000000 0.000000 10.000000 
R_mid_hand01 0.000000 0.000000 0.000000 0.000000 0.000000 0.000000 10.000000 
R_mid_hand02 0.000000 0.000000 0.000000 0.000000 0.000000 0.000000 10.000000 
R_mid_hand03 0.000000 0.000000 0.000000 0.000000 0.000000 0.000000 10.000000 
spine02 0.000000 0.000000 0.000000 0.000000 0.000000 0.000000 10.000000 
spine03 0.000000 0.000000 0.000000 0.000000 0.000000 0.000000 10.000000 
pelvis 0.000000 0.000000 0.000000 0.000000 0.000000 0.000000 10.000000 
null_rope03_connect 0.000000 0.000000 0.000000 0.000000 0.000000 0.000000 10.000000 
null_rope04_connect 0.000000 0.000000 0.000000 0.000000 0.000000 0.000000 10.000000 
Rope3_Seg01 0.000000 0.000000 0.000000 0.000000 0.000000 0.000000 10.000000 
Rope3_Seg02 0.000000 0.000000 0.000000 0.000000 0.000000 0.000000 10.000000 
Rope3_Seg03 0.000000 0.000000 0.000000 0.000000 0.000000 0.000000 10.000000 
Rope3_Seg04 0.000000 0.000000 0.000000 0.000000 0.000000 0.000000 10.000000 
Rope3_Seg05 0.000000 0.000000 0.000000 0.000000 0.000000 0.000000 10.000000 
Rope3_Seg06 0.000000 0.000000 0.000000 0.000000 0.000000 0.000000 10.000000 
Rope3_Seg07 0.000000 0.000000 0.000000 0.000000 0.000000 0.000000 10.000000 
Rope3_Seg08 0.000000 0.000000 0.000000 0.000000 0.000000 0.000000 10.000000 
Rope3_Seg09 0.000000 0.000000 0.000000 0.000000 0.000000 0.000000 10.000000 
R_rear_hand01 0.000000 0.000000 0.000000 0.000000 0.000000 0.000000 10.000000 
R_rear_hand02 0.000000 0.000000 0.000000 0.000000 0.000000 0.000000 10.000000 
R_rear_hand03 0.000000 0.000000 0.000000 0.000000 0.000000 0.000000 10.000000 
Rope4_Seg01 0.000000 0.000000 0.000000 0.000000 0.000000 0.000000 10.000000 
Rope4_Seg02 0.000000 0.000000 0.000000 0.000000 0.000000 0.000000 10.000000 
Rope4_Seg03 0.000000 0.000000 0.000000 0.000000 0.000000 0.000000 10.000000 
Rope4_Seg04 0.000000 0.000000 0.000000 0.000000 0.000000 0.000000 10.000000 
Rope4_Seg05 0.000000 0.000000 0.000000 0.000000 0.000000 0.000000 10.000000 
Rope4_Seg06 0.000000 0.000000 0.000000 0.000000 0.000000 0.000000 10.000000 
Rope4_Seg07 0.000000 0.000000 0.000000 0.000000 0.000000 0.000000 10.000000 
Rope4_Seg08 0.000000 0.000000 0.000000 0.000000 0.000000 0.000000 10.000000 
Rope4_Seg09 0.000000 0.000000 0.000000 0.000000 0.000000 0.000000 10.000000 
L_rear_hand01 0.000000 0.000000 0.000000 0.000000 0.000000 0.000000 10.000000 
L_rear_hand02 0.000000 0.000000 0.000000 0.000000 0.000000 0.000000 10.000000 
L_rear_hand03 0.000000 0.000000 0.000000 0.000000 0.000000 0.000000 10.000000 
#Beginning of Data. Separated by tabs
#Fr	Tx	Ty	Tz	Rx	Ry	Rz	SF
[MASTER]
28 -115.822838 2322.672607 843.836731 0.001660 0.001660 0.001660 2473.920654
29 -115.822838 2335.828125 844.226990 0.001660 0.001660 0.001660 2486.408447
[root]
28 2.696667 444.668976 1104.892578 -93.540108 -36.797062 -88.482048 1191.018677
29 2.696667 444.668976 1104.892578 -92.788361 -36.618702 -89.039627 1191.018677
[chest]
28 -84.512650 -34.090519 0.000000 -12.264812 -27.185553 151.028702 91.129311
29 -84.512650 -34.090519 0.000000 -12.427327 -26.851515 151.350952 91.129311
[L_mid_tent01]
28 27.299145 22.179220 -249.918716 -0.201984 26.715935 74.172096 252.381714
29 27.299147 22.179222 -249.918716 -0.605403 31.833122 70.306679 252.381714
[R_mid_tent01]
28 23.228794 24.509907 226.238495 139.759232 -41.187637 63.448578 228.744751
29 23.228794 24.509907 226.238495 151.787323 -38.047150 60.822372 228.744751
[spine01]
28 -0.361383 -0.195265 0.000000 -0.000001 -0.000007 22.052340 0.410763
29 -0.361383 -0.195265 0.000000 -0.000001 -0.000007 22.052340 0.410763
[Bip01_Neck]
28 165.484543 71.581718 0.000119 176.643677 -1.657967 43.431911 180.302734
29 165.484543 71.581718 0.000119 176.643677 -1.657967 43.431911 180.302734
[L_humerus]
28 -13.983130 -135.272980 -120.471481 170.356812 33.419086 -95.083229 181.680161
29 -13.983130 -135.272980 -120.471481 165.072800 56.953709 -102.287262 181.680161
[R_humerus]
28 -13.983309 -135.273102 125.287651 -176.267807 -29.633709 -87.596115 184.909012
29 -13.983309 -135.273102 125.287651 -174.486847 -53.232628 -90.116219 184.909012
[weapon_bone]
28 235.964890 -300.705902 0.000000 0.000000 -89.951546 -128.212341 382.234833
29 235.964890 -300.705902 0.000000 0.000000 -89.951546 -128.212341 382.234833
[Bip01_Head]
28 213.426010 185.752777 11.101580 35.838017 14.913116 -43.225376 283.157227
29 213.435043 185.734207 11.439345 34.348907 14.456999 -43.604473 283.165283
[eye_left_bone]
28 -24.626970 125.451866 -64.772606 0.000000 -90.000000 -99.840431 143.318359
29 -24.626970 125.451866 -64.772606 0.000000 -90.000000 -99.840431 143.318359
[eye_right_bone]
28 -24.626970 125.451866 64.327362 0.000000 -89.965736 80.156380 143.117676
29 -24.626970 125.451866 64.327362 0.000000 -89.965736 80.156380 143.117676
[L_forearm]
28 322.776093 0.000000 -0.000119 0.000338 -0.002323 -106.552551 322.776093
29 322.776093 0.000000 -0.000119 0.000326 -0.002325 -105.946671 322.776093
[L_front_hand]
28 241.149185 -0.042021 -3.300071 81.912018 -1.835664 -27.422117 241.171753
29 241.149185 -0.042021 -3.300071 54.887203 -1.835120 -27.421272 241.171753
[L_weapon_bone]
28 156.183838 0.000000 0.000000 0.000014 0.000007 0.000001 156.183838
29 156.183838 0.000000 0.000000 0.000014 0.000007 0.000001 156.183838
[L_front_hand01_01]
28 86.095154 20.947098 -0.655860 0.024428 -0.599225 35.383247 88.609184
29 86.095154 20.947098 -0.655860 -0.255040 -0.543545 62.886337 88.609184
[L_front_hand02_01]
28 86.935165 -11.437475 24.513514 122.069237 -31.551823 -18.500204 91.046425
29 86.935165 -11.437475 24.513514 138.598541 -52.899033 -42.482147 91.046425
[L_front_hand03_01]
28 86.637497 -14.123976 -20.424902 -123.245262 30.081028 -20.858690 90.126129
29 86.637497 -14.123976 -20.424902 -139.130203 51.148262 -44.655663 90.126129
[L_front_hand01_02]
28 71.020905 -0.000179 0.000030 0.001531 0.001780 -8.602017 71.020905
29 71.020905 -0.000179 0.000030 0.001520 0.001789 -9.276683 71.020905
[L_front_hand02_02]
28 71.020927 -0.000119 0.000060 0.001531 0.001780 -8.602017 71.020927
29 71.020927 -0.000119 0.000060 0.001520 0.001789 -9.276683 71.020927
[L_front_hand03_02]
28 71.020905 -0.000060 0.000060 0.001531 0.001780 -8.602017 71.020905
29 71.020905 -0.000060 0.000060 0.001520 0.001789 -9.276683 71.020905
[R_forearm]
28 322.776428 -0.000060 0.000030 0.204415 0.053836 -105.580498 322.776428
29 322.776428 -0.000060 0.000030 0.204704 0.052725 -104.958221 322.776428
[R_front_hand]
28 238.847015 -0.006795 2.210259 -71.900841 -10.646342 -26.312891 238.857239
29 238.847015 -0.006795 2.210259 -33.620899 -10.645926 -26.313269 238.857239
[R_weapon_bone]
28 155.664093 0.002503 -0.000030 0.003487 0.001180 -90.988930 155.664078
29 155.664093 0.002503 -0.000030 0.003487 0.001180 -90.988930 155.664078
[R_front_hand01_01]
28 87.624611 14.231146 22.918642 -122.120834 -31.678434 18.703474 91.683487
29 87.624611 14.231146 22.918642 -138.750381 -52.998257 42.777718 91.683487
[R_front_hand02_01]
28 89.356956 14.367283 -19.491137 123.407410 30.459038 21.396713 92.579636
29 89.356956 14.367283 -19.491137 139.579239 51.434830 45.463024 92.579636
[R_front_hand03_01]
28 87.286232 -22.307278 -0.143439 -0.148760 -0.428744 -35.769218 90.091743
29 87.286232 -22.307278 -0.143439 0.065240 -0.451614 -63.269886 90.091743
[R_front_hand01_02]
28 71.020905 0.000060 0.000119 0.001783 0.001527 8.843431 71.020905
29 71.020905 0.000060 0.000119 0.001790 0.001518 9.404067 71.020905
[R_front_hand02_02]
28 71.020844 -0.000030 -0.000119 0.001783 0.001527 8.843431 71.020836
29 71.020844 -0.000030 -0.000119 0.001790 0.001518 9.404067 71.020836
[R_front_hand03_02]
28 71.020905 0.000000 0.000030 0.001783 0.001527 8.843431 71.020905
29 71.020905 0.000000 0.000030 0.001790 0.001518 9.404067 71.020905
[null_rope01_connect]
28 328.732483 0.000000 -0.000238 -131.198898 -61.009804 -175.736465 328.732483
29 328.732483 0.000000 -0.000238 -126.998528 -56.278416 -176.432510 328.732483
[Rope1_Seg01]
28 -0.000022 0.000016 0.000088 111.392273 -0.541158 174.946838 0.000092
29 -0.000023 0.000015 0.000091 115.460075 9.319603 175.640991 0.000095
[Rope1_Seg02]
28 139.999863 -0.000179 0.000000 6.034799 8.326979 -24.513960 139.999863
29 139.999863 -0.000179 0.000000 6.838149 7.891122 -22.747904 139.999863
[Rope1_Seg03]
28 139.999924 0.000060 -0.000060 12.644977 -2.898697 -11.942084 139.999924
29 139.999924 0.000060 -0.000060 7.892862 -1.163798 -7.654558 139.999924
[Rope1_Seg04]
28 139.999924 -0.000060 -0.000119 61.210564 11.928641 -33.787468 139.999924
29 139.999924 -0.000060 -0.000119 93.725563 13.659535 -40.099957 139.999924
[Rope1_Seg05]
28 139.999832 0.000119 -0.000060 88.737701 -26.728037 -36.810898 139.999832
29 139.999832 0.000119 -0.000060 47.508648 -37.105782 -10.230240 139.999832
[Rope1_Seg06]
28 139.999954 0.000119 -0.000060 2.024329 -9.642044 6.068799 139.999954
29 139.999954 0.000119 -0.000060 1.701286 -8.422814 5.299274 139.999954
[Rope1_Seg07]
28 139.999985 0.000060 0.000000 0.669843 -4.360765 2.995611 139.999985
29 139.999985 0.000060 0.000000 0.615061 -3.996120 2.707233 139.999985
[Rope1_Seg09]
28 121.602913 0.000119 -0.000089 -89.793175 -1.359789 0.847147 121.602913
29 121.602913 0.000119 -0.000089 -89.793175 -1.359789 0.847147 121.602913
[L_mid_hand01]
28 103.859421 1.038730 8.195221 130.544373 -67.584534 -38.866943 104.187431
29 103.859421 1.038730 8.195221 130.544373 -67.584534 -38.866943 104.187431
[L_mid_hand02]
28 105.572853 -4.139662 -10.864139 -168.923172 43.409309 -73.498886 106.211075
29 105.572853 -4.139662 -10.864139 -168.923172 43.409309 -73.498886 106.211075
[L_mid_hand03]
28 104.641464 17.579376 -3.913581 -6.012628 17.808176 74.893669 106.179977
29 104.641464 17.579376 -3.913581 -6.012627 17.808174 74.893669 106.179977
[null_rope02_connect]
28 328.732849 0.000179 -0.000119 -62.556042 34.336823 39.851387 328.732849
29 328.732849 0.000179 -0.000119 -70.888710 43.918610 34.397076 328.732849
[Rope2_Seg01]
28 0.000060 0.000065 0.000000 -62.482197 23.849911 5.703675 0.000088
29 0.000061 0.000062 0.000000 -60.881191 23.041599 8.178203 0.000087
[Rope2_Seg02]
28 139.999741 -0.000060 -0.000119 -5.676140 9.083336 1.005888 139.999756
29 139.999741 -0.000060 -0.000119 -4.591461 8.448724 0.744323 139.999756
[Rope2_Seg03]
28 140.000107 0.000030 0.000000 -14.335547 13.131801 2.854577 140.000107
29 140.000107 0.000030 0.000000 -11.437521 12.618176 2.183771 140.000107
[Rope2_Seg04]
28 139.999802 0.000000 -0.000060 -41.756279 17.080463 11.015166 139.999802
29 139.999802 0.000000 -0.000060 -38.554432 18.451960 9.176181 139.999802
[Rope2_Seg05]
28 139.999985 -0.000060 0.000119 -32.849140 6.588174 15.104531 139.999985
29 139.999985 -0.000060 0.000119 -38.168568 9.063678 16.072924 139.999985
[Rope2_Seg06]
28 139.999893 -0.000030 -0.000119 -23.027302 4.553783 13.359689 139.999893
29 139.999893 -0.000030 -0.000119 -22.932484 4.363592 12.915581 139.999893
[Rope2_Seg07]
28 139.999893 0.000060 -0.000060 -14.852846 -2.431765 14.231218 139.999893
29 139.999893 0.000060 -0.000060 -15.765926 -1.637729 14.179415 139.999893
[Rope2_Seg09]
28 121.338966 0.000089 -0.000060 33.793236 -1.359788 -0.847141 121.338966
29 121.338966 0.000089 -0.000060 33.793236 -1.359788 -0.847141 121.338966
[R_mid_hand01]
28 104.680779 11.144459 -10.335981 -16.212063 45.237247 70.462852 105.778534
29 104.680779 11.144459 -10.335981 -16.212059 45.237240 70.462852 105.778534
[R_mid_hand02]
28 104.070427 2.443552 8.231699 49.067368 -67.749779 39.286465 104.424065
29 104.070427 2.443552 8.231699 49.067387 -67.749794 39.286469 104.424065
[R_mid_hand03]
28 106.028137 -11.221827 -5.996406 -177.101105 15.551026 -76.585571 106.788818
29 106.028137 -11.221827 -5.996406 -177.101105 15.551026 -76.585571 106.788818
[spine02]
28 129.756927 0.001550 0.000119 0.485769 -4.030653 -14.752982 129.756927
29 129.756927 0.001550 0.000119 0.477689 -4.031655 -14.634946 129.756927
[spine03]
28 78.613968 0.081722 -4.898995 1.971839 3.793941 17.615883 78.766502
29 78.613960 0.081725 -4.898995 1.967093 3.796835 17.540676 78.766495
[pelvis]
28 169.435242 0.051022 0.000000 -0.069004 -0.178256 16.413279 169.435257
29 169.435242 0.051022 0.000000 -0.068771 -0.178346 16.263403 169.435257
[null_rope03_connect]
28 -1.257226 -2.466202 137.391083 179.082550 -88.262352 -93.580254 137.418976
29 -1.257226 -2.466202 137.391083 -175.891510 -88.850220 -98.698227 137.418976
[null_rope04_connect]
28 -1.259640 -2.480268 -137.844437 179.082550 -88.262352 -93.580254 137.872513
29 -1.259640 -2.480268 -137.844437 -175.891510 -88.850220 -98.698227 137.872513
[Rope3_Seg01]
28 0.000000 0.000000 0.000000 57.647099 -74.560890 72.868561 0.000000
29 0.000000 0.000000 0.000000 75.503975 -75.580154 55.940857 0.000000
[Rope3_Seg02]
28 139.999924 -0.000119 0.000060 8.189705 -17.579704 -0.995857 139.999924
29 139.999924 -0.000119 0.000060 9.993005 -18.675261 -0.669568 139.999924
[Rope3_Seg03]
28 139.999924 -0.000119 0.000119 24.306196 -31.374109 -0.202581 139.999924
29 139.999924 -0.000119 0.000119 21.062059 -25.701447 0.105685 139.999924
[Rope3_Seg04]
28 139.999924 0.000119 0.000000 23.084146 -23.701809 12.266255 139.999924
29 139.999924 0.000119 0.000000 20.039364 -18.995853 10.652732 139.999924
[Rope3_Seg05]
28 139.999924 -0.000238 0.000060 10.187548 -6.327700 36.244019 139.999924
29 139.999924 -0.000238 0.000060 11.179643 -10.097931 42.660561 139.999924
[Rope3_Seg06]
28 139.999893 -0.000119 -0.000060 0.999588 1.306308 26.441832 139.999893
29 139.999893 -0.000119 -0.000060 0.093594 0.198266 26.224710 139.999893
[Rope3_Seg07]
28 139.999771 0.000060 -0.000119 -1.013753 0.028592 10.312647 139.999771
29 139.999771 0.000060 -0.000119 -1.160671 -0.314631 9.417704 139.999771
[Rope3_Seg08]
28 139.999985 -0.000060 0.000000 -0.555910 -0.073560 4.899795 139.999985
29 139.999985 -0.000060 0.000000 -0.561692 -0.234055 4.415513 139.999985
[Rope3_Seg09]
28 90.185997 -0.000179 -0.000060 89.793228 -1.359877 -0.847183 90.185997
29 90.185997 -0.000179 -0.000060 89.793228 -1.359877 -0.847183 90.185997
[R_rear_hand01]
28 103.366196 -6.073594 -10.757982 -177.714203 24.565960 -73.910950 104.101845
29 103.366196 -6.073594 -10.757982 -177.714203 24.565960 -73.910950 104.101845
[R_rear_hand02]
28 100.509819 12.039542 -7.992327 -12.874829 36.868488 72.167213 101.543350
29 100.509819 12.039542 -7.992327 -12.874829 36.868488 72.167213 101.543350
[R_rear_hand03]
28 101.539970 5.215704 5.435467 71.484581 -71.816628 21.513813 101.819031
29 101.539970 5.215704 5.435467 71.484581 -71.816628 21.513813 101.819031
[Rope4_Seg01]
28 0.000010 0.000038 -0.000114 166.377625 -37.283730 163.478668 0.000121
29 0.000010 0.000038 -0.000114 167.315628 -34.107594 163.777969 0.000121
[Rope4_Seg02]
28 139.999985 0.000060 0.000119 -74.153938 -12.229407 -18.362610 139.999985
29 139.999985 0.000060 0.000119 -92.013260 -12.623063 -18.119074 139.999985
[Rope4_Seg03]
28 139.999924 0.000000 -0.000238 -60.231758 2.149588 -13.637513 139.999924
29 139.999924 0.000000 -0.000238 -52.895321 4.382795 -12.051217 139.999924
[Rope4_Seg04]
28 139.999985 0.000000 0.000119 8.055720 16.599836 12.444698 139.999985
29 139.999985 0.000000 0.000119 15.069624 14.968414 16.956753 139.999985
[Rope4_Seg05]
28 139.999802 -0.000060 -0.000119 14.135406 26.374311 27.918026 139.999802
29 139.999802 -0.000060 -0.000119 15.221150 25.819233 30.156542 139.999802
[Rope4_Seg06]
28 139.999924 0.000000 0.000060 1.422241 12.275658 8.279941 139.999924
29 139.999924 0.000000 0.000060 1.292078 11.228535 8.146613 139.999924
[Rope4_Seg07]
28 139.999802 0.000000 0.000000 0.330843 5.981086 3.738888 139.999802
29 139.999802 0.000000 0.000000 0.283753 5.472310 3.724428 139.999802
[Rope4_Seg08]
28 139.999924 0.000000 0.000119 -1.443653 3.158083 1.960937 139.999924
29 139.999924 0.000000 0.000119 -1.472847 2.896288 1.958437 139.999924
[Rope4_Seg09]
28 90.185791 0.000060 0.000060 -135.617828 2.228885 0.850567 90.185791
29 90.185791 0.000060 0.000060 -135.617828 2.228885 0.850567 90.185791
[L_rear_hand01]
28 101.696655 -8.392275 -7.654577 -12.874833 -36.868488 107.832779 102.329041
29 101.696655 -8.392275 -7.654577 -12.874829 -36.868488 107.832764 102.329041
[L_rear_hand02]
28 102.726799 -1.568258 5.773216 71.484581 71.816643 158.486160 102.900848
29 102.726799 -1.568258 5.773216 71.484581 71.816628 158.486160 102.900848
[L_rear_hand03]
28 104.552910 9.721220 -10.420293 -177.714203 -24.565962 -106.089035 105.519653
29 104.552910 9.721220 -10.420293 -177.714203 -24.565960 -106.089035 105.519653
